# Blender 5.2.1 LTS
# www.blender.org
mtllib star.mtl
o Gold_star
v -0.954759 0.000070 -0.391423
v -0.959621 0.000295 -0.387890
v -0.960769 0.000295 -0.391423
v -0.959621 0.000295 -0.394955
v -0.956616 0.000295 -0.397139
v -0.952901 0.000295 -0.397139
v -0.949896 0.000295 -0.394955
v -0.948748 0.000295 -0.391423
v -0.949896 0.000295 -0.387890
v -0.952901 0.000295 -0.385707
v -0.956616 0.000295 -0.385707
v -0.958291 0.000295 -0.386560
v -0.960475 0.000295 -0.389565
v -0.960475 0.000295 -0.393280
v -0.958291 0.000295 -0.396285
v -0.954759 0.000295 -0.397433
v -0.951226 0.000295 -0.396285
v -0.949042 0.000295 -0.393280
v -0.949042 0.000295 -0.389565
v -0.951226 0.000295 -0.386560
v -0.954759 0.000295 -0.385412
v -0.955717 0.000183 -0.388472
v -0.956582 0.000183 -0.388913
v -0.957268 0.000183 -0.389599
v -0.957709 0.000183 -0.390464
v -0.957861 0.000183 -0.391423
v -0.957709 0.000183 -0.392381
v -0.957268 0.000183 -0.393246
v -0.956582 0.000183 -0.393933
v -0.955717 0.000183 -0.394373
v -0.954759 0.000183 -0.394525
v -0.953800 0.000183 -0.394373
v -0.952935 0.000183 -0.393933
v -0.952249 0.000183 -0.393246
v -0.951808 0.000183 -0.392381
v -0.951656 0.000183 -0.391423
v -0.951808 0.000183 -0.390464
v -0.952249 0.000183 -0.389599
v -0.952935 0.000183 -0.388913
v -0.953800 0.000183 -0.388472
v -0.954759 0.000183 -0.388320
v -0.960172 0.002550 -0.374762
v -0.979592 0.016078 -0.314992
v -0.969882 0.009314 -0.344877
v -0.998727 0.023890 -0.322091
v -0.964407 0.003329 -0.376289
v -0.981355 0.012774 -0.348832
v -1.015474 0.029621 -0.347310
v -0.968085 0.003875 -0.381740
v -0.991830 0.015590 -0.364488
v -1.034284 0.023890 -0.371030
v -0.972133 0.003329 -0.386923
v -1.003483 0.012774 -0.379289
v -1.035123 0.016078 -0.391423
v -0.972276 0.002550 -0.391423
v -1.003700 0.009314 -0.391423
v -1.034284 0.023890 -0.411815
v -0.972133 0.003330 -0.395922
v -1.003484 0.012774 -0.403556
v -1.015474 0.029621 -0.435535
v -0.968085 0.003875 -0.401105
v -0.991830 0.015590 -0.418357
v -0.998727 0.023890 -0.460754
v -0.964407 0.003330 -0.406557
v -0.981355 0.012774 -0.434013
v -0.979592 0.016078 -0.467853
v -0.960172 0.002550 -0.408083
v -0.969882 0.009314 -0.437968
v -0.959939 0.023890 -0.473357
v -0.955849 0.003329 -0.409337
v -0.958276 0.012774 -0.441512
v -0.931567 0.029621 -0.462798
v -0.949668 0.003875 -0.407089
v -0.940598 0.015590 -0.435003
v -0.902407 0.023890 -0.454664
v -0.943347 0.003329 -0.405275
v -0.922471 0.012774 -0.429879
v -0.889743 0.016078 -0.438659
v -0.940586 0.002550 -0.401719
v -0.915164 0.009314 -0.420189
v -0.878435 0.023890 -0.421669
v -0.938057 0.003329 -0.397995
v -0.908207 0.012774 -0.410246
v -0.879710 0.029621 -0.391423
v -0.938286 0.003875 -0.391423
v -0.908935 0.015590 -0.391423
v -0.878435 0.023890 -0.361176
v -0.938057 0.003329 -0.384850
v -0.908207 0.012774 -0.372599
v -0.889743 0.016078 -0.344186
v -0.940586 0.002550 -0.381126
v -0.915164 0.009314 -0.362656
v -0.902407 0.023890 -0.328181
v -0.943347 0.003329 -0.377570
v -0.922471 0.012774 -0.352967
v -0.931567 0.029621 -0.320047
v -0.949668 0.003875 -0.375757
v -0.940598 0.015590 -0.347842
v -0.959939 0.023890 -0.309488
v -0.955849 0.003329 -0.373508
v -0.958276 0.012774 -0.341333
v -1.326732 0.280480 -0.096798
v -1.341192 0.319501 -0.086888
v -1.336956 0.295453 -0.089782
v -1.363802 0.319501 -0.118009
v -1.349909 0.280480 -0.128699
v -1.359741 0.295453 -0.121143
v -1.334001 0.280500 -0.115887
v -1.348423 0.319501 -0.105409
v -1.344201 0.295459 -0.108476
v -1.984517 0.280793 -0.380705
v -2.024901 0.319501 -0.381142
v -2.013045 0.295545 -0.381003
v -2.024901 0.319501 -0.401702
v -1.984517 0.280793 -0.402140
v -2.013045 0.295545 -0.401842
v -2.035599 0.319501 -0.391422
v -1.996030 0.280729 -0.391422
v -2.023993 0.295526 -0.391422
v -1.349909 0.280481 -0.654146
v -1.363802 0.319501 -0.664836
v -1.359741 0.295453 -0.661702
v -1.341192 0.319501 -0.695956
v -1.326732 0.280481 -0.686046
v -1.336956 0.295453 -0.693063
v -1.334001 0.280500 -0.666958
v -1.348423 0.319501 -0.677436
v -1.344201 0.295459 -0.674369
v -0.789500 0.280480 0.053389
v -0.784544 0.319501 0.070203
v -0.785987 0.295453 0.065281
v -0.821128 0.319501 0.082090
v -0.827001 0.280480 0.065574
v -0.822854 0.295453 0.077259
v -0.809901 0.280500 0.054404
v -0.804392 0.319501 0.071357
v -0.806005 0.295458 0.066394
v -1.262778 0.280793 0.591248
v -1.275674 0.319501 0.629521
v -1.271877 0.295544 0.618287
v -1.295228 0.319501 0.623167
v -1.283165 0.280793 0.584624
v -1.291696 0.295544 0.611848
v -1.288757 0.319501 0.636519
v -1.276529 0.280728 0.598885
v -1.285170 0.295525 0.625480
v -0.480650 0.280480 -0.411138
v -0.463127 0.319501 -0.410656
v -0.468255 0.295453 -0.410805
v -0.463127 0.319501 -0.372189
v -0.480650 0.280480 -0.371707
v -0.468255 0.295453 -0.372041
v -0.468163 0.319501 -0.391423
v -0.485989 0.280500 -0.391423
v -0.473381 0.295459 -0.391423
v -0.115366 0.280793 0.205183
v -0.082952 0.319501 0.229275
v -0.092462 0.295544 0.222193
v -0.095037 0.319501 0.245908
v -0.127966 0.280793 0.222525
v -0.104711 0.295544 0.239052
v -0.080339 0.319501 0.243880
v -0.112352 0.280729 0.220621
v -0.089729 0.295525 0.237058
v -0.827002 0.280481 -0.848419
v -0.821128 0.319501 -0.864936
v -0.822854 0.295453 -0.860105
v -0.784544 0.319501 -0.853049
v -0.789501 0.280481 -0.836234
v -0.785987 0.295453 -0.848126
v -0.809901 0.280500 -0.837249
v -0.804392 0.319501 -0.854203
v -0.806005 0.295459 -0.849240
v -0.127966 0.280793 -1.005371
v -0.095037 0.319501 -1.028754
v -0.104712 0.295545 -1.021898
v -0.082953 0.319501 -1.012120
v -0.115367 0.280793 -0.988029
v -0.092463 0.295545 -1.005038
v -0.112353 0.280729 -1.003467
v -0.080340 0.319501 -1.026725
v -0.089730 0.295526 -1.019903
v -1.283165 0.280793 -1.367469
v -1.295228 0.319502 -1.406012
v -1.291697 0.295545 -1.394692
v -1.275675 0.319502 -1.412365
v -1.262779 0.280793 -1.374093
v -1.271878 0.295545 -1.401132
v -1.276530 0.280729 -1.381730
v -1.288757 0.319502 -1.419363
v -1.285171 0.295526 -1.408325
v -0.954759 0.638932 -0.391422
v -0.959621 0.638708 -0.387890
v -0.960769 0.638708 -0.391422
v -0.959621 0.638708 -0.394955
v -0.956616 0.638708 -0.397139
v -0.952901 0.638708 -0.397139
v -0.949896 0.638708 -0.394955
v -0.948748 0.638708 -0.391422
v -0.949896 0.638708 -0.387890
v -0.952901 0.638708 -0.385706
v -0.956616 0.638708 -0.385706
v -0.958291 0.638708 -0.386560
v -0.960475 0.638708 -0.389565
v -0.960475 0.638708 -0.393280
v -0.958291 0.638708 -0.396285
v -0.954759 0.638708 -0.397433
v -0.951226 0.638708 -0.396285
v -0.949042 0.638708 -0.393280
v -0.949042 0.638708 -0.389565
v -0.951226 0.638708 -0.386560
v -0.954759 0.638708 -0.385412
v -0.955717 0.638819 -0.388472
v -0.956582 0.638819 -0.388913
v -0.957268 0.638819 -0.389599
v -0.957709 0.638819 -0.390464
v -0.957861 0.638819 -0.391422
v -0.957709 0.638819 -0.392381
v -0.957268 0.638819 -0.393246
v -0.956582 0.638819 -0.393932
v -0.955717 0.638819 -0.394373
v -0.954759 0.638819 -0.394525
v -0.953800 0.638819 -0.394373
v -0.952935 0.638819 -0.393932
v -0.952249 0.638819 -0.393246
v -0.951808 0.638819 -0.392381
v -0.951656 0.638819 -0.391422
v -0.951808 0.638819 -0.390464
v -0.952249 0.638819 -0.389599
v -0.952935 0.638819 -0.388913
v -0.953800 0.638819 -0.388472
v -0.954759 0.638819 -0.388320
v -0.960172 0.636452 -0.374762
v -0.979592 0.622924 -0.314992
v -0.969882 0.629688 -0.344877
v -0.998727 0.615112 -0.322091
v -0.964407 0.635673 -0.376288
v -0.981355 0.626228 -0.348832
v -1.015474 0.609381 -0.347310
v -0.968085 0.635127 -0.381740
v -0.991830 0.623412 -0.364488
v -1.034284 0.615112 -0.371030
v -0.972133 0.635673 -0.386923
v -1.003483 0.626228 -0.379289
v -1.035123 0.622924 -0.391422
v -0.972276 0.636452 -0.391422
v -1.003700 0.629688 -0.391422
v -1.034284 0.615112 -0.411815
v -0.972133 0.635673 -0.395922
v -1.003484 0.626228 -0.403556
v -1.015474 0.609381 -0.435535
v -0.968085 0.635127 -0.401105
v -0.991830 0.623412 -0.418357
v -0.998727 0.615112 -0.460754
v -0.964407 0.635673 -0.406557
v -0.981355 0.626228 -0.434013
v -0.979592 0.622924 -0.467853
v -0.960172 0.636452 -0.408083
v -0.969882 0.629688 -0.437968
v -0.959939 0.615112 -0.473357
v -0.955849 0.635673 -0.409337
v -0.958276 0.626228 -0.441512
v -0.931567 0.609381 -0.462798
v -0.949668 0.635127 -0.407089
v -0.940598 0.623412 -0.435003
v -0.902407 0.615112 -0.454664
v -0.943347 0.635673 -0.405275
v -0.922471 0.626228 -0.429878
v -0.889743 0.622924 -0.438659
v -0.940586 0.636452 -0.401719
v -0.915164 0.629688 -0.420189
v -0.878435 0.615112 -0.421669
v -0.938057 0.635673 -0.397995
v -0.908207 0.626228 -0.410246
v -0.879710 0.609381 -0.391423
v -0.938286 0.635127 -0.391422
v -0.908935 0.623412 -0.391423
v -0.878435 0.615112 -0.361176
v -0.938057 0.635673 -0.384850
v -0.908207 0.626228 -0.372599
v -0.889743 0.622924 -0.344186
v -0.940586 0.636452 -0.381126
v -0.915164 0.629688 -0.362656
v -0.902407 0.615112 -0.328181
v -0.943347 0.635673 -0.377570
v -0.922471 0.626228 -0.352967
v -0.931567 0.609381 -0.320047
v -0.949668 0.635127 -0.375756
v -0.940598 0.623412 -0.347842
v -0.959939 0.615112 -0.309488
v -0.955849 0.635673 -0.373508
v -0.958276 0.626228 -0.341333
v -1.326732 0.358522 -0.096798
v -1.336956 0.343549 -0.089782
v -1.349909 0.358522 -0.128699
v -1.359741 0.343549 -0.121143
v -1.334001 0.358502 -0.115887
v -1.344201 0.343543 -0.108476
v -1.984517 0.358209 -0.380705
v -2.013045 0.343458 -0.381003
v -1.984517 0.358209 -0.402140
v -2.013045 0.343458 -0.401842
v -1.996030 0.358273 -0.391422
v -2.023993 0.343476 -0.391422
v -1.349909 0.358522 -0.654146
v -1.359741 0.343549 -0.661702
v -1.326732 0.358522 -0.686046
v -1.336956 0.343549 -0.693063
v -1.334001 0.358502 -0.666958
v -1.344201 0.343544 -0.674369
v -0.789500 0.358522 0.053389
v -0.785987 0.343549 0.065281
v -0.827001 0.358522 0.065574
v -0.822854 0.343549 0.077259
v -0.809901 0.358502 0.054404
v -0.806005 0.343543 0.066394
v -1.262778 0.358209 0.591248
v -1.271877 0.343457 0.618287
v -1.283165 0.358209 0.584624
v -1.291696 0.343457 0.611848
v -1.276529 0.358273 0.598885
v -1.285170 0.343476 0.625480
v -0.480650 0.358522 -0.411138
v -0.468255 0.343549 -0.410805
v -0.480650 0.358522 -0.371707
v -0.468255 0.343549 -0.372041
v -0.485989 0.358502 -0.391423
v -0.473381 0.343544 -0.391423
v -0.115366 0.358209 0.205183
v -0.092462 0.343457 0.222193
v -0.127966 0.358209 0.222525
v -0.104711 0.343457 0.239052
v -0.112352 0.358273 0.220621
v -0.089729 0.343476 0.237058
v -0.827002 0.358522 -0.848419
v -0.822854 0.343550 -0.860105
v -0.789501 0.358522 -0.836234
v -0.785987 0.343550 -0.848126
v -0.809901 0.358503 -0.837249
v -0.806005 0.343544 -0.849240
v -0.127966 0.358210 -1.005371
v -0.104712 0.343458 -1.021898
v -0.115367 0.358210 -0.988029
v -0.092463 0.343458 -1.005038
v -0.112353 0.358274 -1.003467
v -0.089730 0.343477 -1.019903
v -1.283165 0.358210 -1.367469
v -1.291697 0.343458 -1.394692
v -1.262779 0.358210 -1.374093
v -1.271878 0.343458 -1.401132
v -1.276530 0.358274 -1.381730
v -1.285171 0.343477 -1.408325
vn -0.0000 -1.0000 -0.0000
vn -0.1514 -0.9823 0.1100
vn -0.1317 -0.9913 -0.0000
vn -0.1514 -0.9823 -0.1100
vn -0.0407 -0.9913 -0.1252
vn 0.0578 -0.9823 -0.1780
vn 0.1065 -0.9913 -0.0774
vn 0.1871 -0.9823 -0.0000
vn 0.1065 -0.9913 0.0774
vn 0.0578 -0.9823 0.1780
vn -0.0407 -0.9913 0.1252
vn -0.1424 -0.9854 0.0932
vn -0.1327 -0.9854 0.1066
vn -0.1327 -0.9854 -0.1066
vn -0.1424 -0.9854 -0.0932
vn 0.0604 -0.9854 -0.1591
vn 0.0447 -0.9854 -0.1642
vn 0.1700 -0.9854 0.0083
vn 0.1700 -0.9854 -0.0083
vn 0.0447 -0.9854 0.1642
vn 0.0604 -0.9854 0.1591
vn -0.0116 -0.9993 0.0356
vn -0.0220 -0.9993 0.0303
vn -0.0303 -0.9993 0.0220
vn -0.0356 -0.9993 0.0116
vn -0.0374 -0.9993 -0.0000
vn -0.0356 -0.9993 -0.0116
vn -0.0303 -0.9993 -0.0220
vn -0.0220 -0.9993 -0.0303
vn -0.0116 -0.9993 -0.0356
vn -0.0000 -0.9993 -0.0374
vn 0.0116 -0.9993 -0.0356
vn 0.0220 -0.9993 -0.0303
vn 0.0303 -0.9993 -0.0220
vn 0.0356 -0.9993 -0.0116
vn 0.0374 -0.9993 -0.0000
vn 0.0356 -0.9993 0.0116
vn 0.0303 -0.9993 0.0220
vn 0.0220 -0.9993 0.0303
vn 0.0116 -0.9993 0.0356
vn -0.0000 -0.9993 0.0374
vn -0.0663 -0.9767 0.2040
vn -0.0769 -0.9685 0.2367
vn -0.0702 -0.9739 0.2160
vn -0.4540 -0.8823 0.1242
vn -0.2955 -0.9470 0.1263
vn -0.3786 -0.9190 0.1100
vn -0.3904 -0.8759 0.2836
vn -0.2703 -0.9425 0.1964
vn -0.3169 -0.9201 0.2302
vn -0.2584 -0.8823 0.3934
vn -0.2115 -0.9470 0.2420
vn -0.2216 -0.9190 0.3260
vn -0.2488 -0.9685 -0.0000
vn -0.2145 -0.9767 -0.0000
vn -0.2271 -0.9739 -0.0000
vn -0.2584 -0.8823 -0.3934
vn -0.2115 -0.9470 -0.2420
vn -0.2216 -0.9190 -0.3260
vn -0.3904 -0.8759 -0.2836
vn -0.2703 -0.9425 -0.1964
vn -0.3169 -0.9201 -0.2302
vn -0.4540 -0.8823 -0.1242
vn -0.2955 -0.9470 -0.1263
vn -0.3786 -0.9190 -0.1100
vn -0.0769 -0.9685 -0.2367
vn -0.0663 -0.9767 -0.2040
vn -0.0702 -0.9739 -0.2160
vn 0.2943 -0.8823 -0.3674
vn 0.1648 -0.9470 -0.2759
vn 0.2416 -0.9190 -0.3115
vn 0.1491 -0.8759 -0.4589
vn 0.1032 -0.9425 -0.3177
vn 0.1210 -0.9201 -0.3725
vn -0.0222 -0.8823 -0.4702
vn 0.0289 -0.9470 -0.3201
vn -0.0123 -0.9190 -0.3940
vn 0.2013 -0.9685 -0.1463
vn 0.1735 -0.9767 -0.1261
vn 0.1837 -0.9739 -0.1335
vn 0.4403 -0.8823 0.1664
vn 0.3133 -0.9470 0.0715
vn 0.3709 -0.9190 0.1335
vn 0.4825 -0.8759 -0.0000
vn 0.3341 -0.9425 -0.0000
vn 0.3917 -0.9201 -0.0000
vn 0.4403 -0.8823 -0.1664
vn 0.3133 -0.9470 -0.0715
vn 0.3709 -0.9190 -0.1335
vn 0.2013 -0.9685 0.1463
vn 0.1735 -0.9767 0.1261
vn 0.1837 -0.9739 0.1335
vn -0.0222 -0.8823 0.4702
vn 0.0289 -0.9470 0.3201
vn -0.0123 -0.9190 0.3940
vn 0.1491 -0.8759 0.4589
vn 0.1032 -0.9425 0.3177
vn 0.1210 -0.9201 0.3725
vn 0.2943 -0.8823 0.3674
vn 0.1648 -0.9470 0.2759
vn 0.2416 -0.9190 0.3115
vn -0.6710 -0.7284 0.1387
vn -0.9780 -0.0000 0.2084
vn -0.8890 -0.4174 0.1881
vn -0.5004 -0.0000 0.8658
vn -0.3392 -0.7284 0.5953
vn -0.4536 -0.4174 0.7874
vn -0.5221 -0.7639 0.3793
vn -0.8090 -0.0000 0.5878
vn -0.7201 -0.4558 0.5232
vn -0.3022 -0.7739 0.5566
vn -0.5775 -0.0000 0.8164
vn -0.4667 -0.5066 0.7249
vn -0.5775 -0.0000 -0.8164
vn -0.3022 -0.7739 -0.5566
vn -0.4667 -0.5066 -0.7249
vn -1.0000 -0.0000 -0.0000
vn -0.4137 -0.9104 -0.0000
vn -0.7776 -0.6288 -0.0000
vn -0.3392 -0.7284 -0.5953
vn -0.5004 -0.0000 -0.8658
vn -0.4536 -0.4174 -0.7874
vn -0.9780 -0.0000 -0.2084
vn -0.6710 -0.7284 -0.1387
vn -0.8890 -0.4174 -0.1881
vn -0.5221 -0.7639 -0.3793
vn -0.8090 -0.0000 -0.5878
vn -0.7201 -0.4558 -0.5232
vn -0.0755 -0.7284 0.6810
vn -0.1040 -0.0000 0.9946
vn -0.0959 -0.4174 0.9036
vn 0.6688 -0.0000 0.7435
vn 0.4613 -0.7284 0.5066
vn 0.6087 -0.4174 0.6747
vn 0.1994 -0.7639 0.6137
vn 0.3090 -0.0000 0.9511
vn 0.2751 -0.4558 0.8465
vn 0.4359 -0.7739 0.4594
vn 0.5980 -0.0000 0.8015
vn 0.5452 -0.5066 0.6679
vn -0.9549 -0.0000 0.2969
vn -0.6227 -0.7739 0.1154
vn -0.8337 -0.5066 0.2199
vn -0.3090 -0.0000 0.9511
vn -0.1278 -0.9104 0.3934
vn -0.2403 -0.6288 0.7395
vn 0.6243 -0.7284 0.2822
vn 0.9138 -0.0000 0.4063
vn 0.8298 -0.4174 0.3704
vn 0.9137 -0.0000 -0.4063
vn 0.6243 -0.7284 -0.2822
vn 0.8298 -0.4174 -0.3704
vn 1.0000 -0.0000 -0.0000
vn 0.6453 -0.7639 -0.0000
vn 0.8901 -0.4558 -0.0000
vn 0.5716 -0.7739 -0.2727
vn 0.9471 -0.0000 -0.3211
vn 0.8037 -0.5066 -0.3121
vn -0.0127 -0.0000 0.9999
vn -0.0827 -0.7739 0.6279
vn -0.0485 -0.5066 0.8608
vn 0.8090 -0.0000 0.5878
vn 0.3347 -0.9104 0.2431
vn 0.6291 -0.6288 0.4570
vn 0.4613 -0.7284 -0.5066
vn 0.6688 -0.0000 -0.7435
vn 0.6087 -0.4174 -0.6747
vn -0.1040 -0.0000 -0.9946
vn -0.0755 -0.7284 -0.6810
vn -0.0959 -0.4174 -0.9037
vn 0.1994 -0.7639 -0.6137
vn 0.3090 -0.0000 -0.9511
vn 0.2751 -0.4558 -0.8465
vn -0.0827 -0.7739 -0.6279
vn -0.0127 -0.0000 -0.9999
vn -0.0485 -0.5066 -0.8608
vn 0.9471 -0.0000 0.3211
vn 0.5716 -0.7739 0.2727
vn 0.8037 -0.5066 0.3121
vn 0.3347 -0.9104 -0.2431
vn 0.8090 -0.0000 -0.5878
vn 0.6291 -0.6288 -0.4570
vn -0.6227 -0.7739 -0.1154
vn -0.9549 -0.0000 -0.2969
vn -0.8337 -0.5066 -0.2199
vn 0.5980 -0.0000 -0.8015
vn 0.4359 -0.7739 -0.4594
vn 0.5452 -0.5066 -0.6679
vn -0.1278 -0.9104 -0.3934
vn -0.3090 -0.0000 -0.9511
vn -0.2403 -0.6288 -0.7395
vn -0.0000 1.0000 -0.0000
vn -0.1514 0.9823 0.1100
vn -0.1317 0.9913 -0.0000
vn -0.1514 0.9823 -0.1100
vn -0.0407 0.9913 -0.1252
vn 0.0578 0.9823 -0.1780
vn 0.1065 0.9913 -0.0774
vn 0.1871 0.9823 -0.0000
vn 0.1065 0.9913 0.0774
vn 0.0578 0.9823 0.1780
vn -0.0407 0.9913 0.1252
vn -0.1424 0.9854 0.0932
vn -0.1327 0.9854 0.1066
vn -0.1327 0.9854 -0.1066
vn -0.1424 0.9854 -0.0932
vn 0.0604 0.9854 -0.1591
vn 0.0446 0.9854 -0.1642
vn 0.1700 0.9854 0.0083
vn 0.1700 0.9854 -0.0083
vn 0.0446 0.9854 0.1642
vn 0.0604 0.9854 0.1591
vn -0.0116 0.9993 0.0356
vn -0.0220 0.9993 0.0303
vn -0.0302 0.9993 0.0220
vn -0.0356 0.9993 0.0116
vn -0.0374 0.9993 -0.0000
vn -0.0356 0.9993 -0.0116
vn -0.0303 0.9993 -0.0220
vn -0.0220 0.9993 -0.0303
vn -0.0115 0.9993 -0.0356
vn -0.0000 0.9993 -0.0374
vn 0.0115 0.9993 -0.0356
vn 0.0220 0.9993 -0.0303
vn 0.0303 0.9993 -0.0220
vn 0.0356 0.9993 -0.0116
vn 0.0374 0.9993 -0.0000
vn 0.0356 0.9993 0.0116
vn 0.0303 0.9993 0.0220
vn 0.0220 0.9993 0.0303
vn 0.0116 0.9993 0.0356
vn -0.0000 0.9993 0.0374
vn -0.0663 0.9767 0.2040
vn -0.0769 0.9685 0.2367
vn -0.0702 0.9739 0.2160
vn -0.4540 0.8823 0.1242
vn -0.2955 0.9470 0.1263
vn -0.3786 0.9190 0.1100
vn -0.3904 0.8759 0.2836
vn -0.2703 0.9425 0.1964
vn -0.3169 0.9201 0.2302
vn -0.2584 0.8823 0.3934
vn -0.2115 0.9470 0.2420
vn -0.2216 0.9190 0.3260
vn -0.2488 0.9685 -0.0000
vn -0.2145 0.9767 -0.0000
vn -0.2271 0.9739 -0.0000
vn -0.2584 0.8823 -0.3934
vn -0.2115 0.9470 -0.2420
vn -0.2216 0.9190 -0.3260
vn -0.3904 0.8759 -0.2836
vn -0.2703 0.9425 -0.1964
vn -0.3169 0.9201 -0.2302
vn -0.4540 0.8823 -0.1242
vn -0.2955 0.9470 -0.1263
vn -0.3786 0.9190 -0.1100
vn -0.0769 0.9685 -0.2367
vn -0.0663 0.9767 -0.2040
vn -0.0702 0.9739 -0.2160
vn 0.2943 0.8823 -0.3674
vn 0.1648 0.9470 -0.2759
vn 0.2416 0.9190 -0.3115
vn 0.1491 0.8759 -0.4589
vn 0.1032 0.9425 -0.3177
vn 0.1210 0.9201 -0.3725
vn -0.0222 0.8823 -0.4702
vn 0.0288 0.9470 -0.3200
vn -0.0123 0.9190 -0.3940
vn 0.2013 0.9685 -0.1463
vn 0.1735 0.9767 -0.1261
vn 0.1837 0.9739 -0.1335
vn 0.4403 0.8823 0.1664
vn 0.3133 0.9470 0.0715
vn 0.3709 0.9190 0.1335
vn 0.4825 0.8759 -0.0000
vn 0.3341 0.9425 -0.0000
vn 0.3917 0.9201 -0.0000
vn 0.4403 0.8823 -0.1664
vn 0.3133 0.9470 -0.0715
vn 0.3709 0.9190 -0.1335
vn 0.2013 0.9685 0.1463
vn 0.1735 0.9767 0.1261
vn 0.1837 0.9739 0.1335
vn -0.0222 0.8823 0.4702
vn 0.0289 0.9470 0.3200
vn -0.0123 0.9190 0.3940
vn 0.1491 0.8759 0.4589
vn 0.1032 0.9425 0.3177
vn 0.1210 0.9201 0.3725
vn 0.2943 0.8823 0.3674
vn 0.1648 0.9470 0.2759
vn 0.2416 0.9190 0.3115
vn -0.6710 0.7284 0.1387
vn -0.8890 0.4174 0.1881
vn -0.3392 0.7284 0.5953
vn -0.4536 0.4174 0.7874
vn -0.5221 0.7639 0.3793
vn -0.7201 0.4558 0.5232
vn -0.3022 0.7739 0.5566
vn -0.4667 0.5066 0.7249
vn -0.3022 0.7739 -0.5566
vn -0.4667 0.5066 -0.7249
vn -0.4137 0.9104 -0.0000
vn -0.7776 0.6288 -0.0000
vn -0.3392 0.7284 -0.5953
vn -0.4536 0.4174 -0.7874
vn -0.6710 0.7284 -0.1387
vn -0.8890 0.4174 -0.1881
vn -0.5221 0.7639 -0.3793
vn -0.7201 0.4558 -0.5232
vn -0.0755 0.7284 0.6810
vn -0.0959 0.4174 0.9036
vn 0.4613 0.7284 0.5066
vn 0.6087 0.4174 0.6747
vn 0.1994 0.7639 0.6137
vn 0.2751 0.4558 0.8465
vn 0.4359 0.7739 0.4594
vn 0.5452 0.5066 0.6679
vn -0.6227 0.7739 0.1154
vn -0.8337 0.5066 0.2199
vn -0.1278 0.9104 0.3934
vn -0.2403 0.6288 0.7395
vn 0.6243 0.7284 0.2822
vn 0.8298 0.4174 0.3704
vn 0.6243 0.7284 -0.2822
vn 0.8298 0.4174 -0.3704
vn 0.6453 0.7639 -0.0000
vn 0.8901 0.4558 -0.0000
vn 0.5716 0.7739 -0.2727
vn 0.8037 0.5066 -0.3121
vn -0.0827 0.7739 0.6279
vn -0.0485 0.5066 0.8608
vn 0.3347 0.9104 0.2431
vn 0.6291 0.6288 0.4570
vn 0.4613 0.7284 -0.5066
vn 0.6087 0.4174 -0.6747
vn -0.0755 0.7284 -0.6810
vn -0.0959 0.4174 -0.9036
vn 0.1994 0.7639 -0.6137
vn 0.2751 0.4558 -0.8465
vn -0.0827 0.7739 -0.6279
vn -0.0485 0.5066 -0.8608
vn 0.5716 0.7739 0.2727
vn 0.8037 0.5066 0.3121
vn 0.3347 0.9104 -0.2431
vn 0.6291 0.6288 -0.4570
vn -0.6227 0.7739 -0.1154
vn -0.8337 0.5066 -0.2199
vn 0.4359 0.7739 -0.4594
vn 0.5452 0.5066 -0.6679
vn -0.1278 0.9104 -0.3934
vn -0.2403 0.6288 -0.7395
vt 0.533341 0.764038
vt 0.653802 0.721149
vt 0.656575 0.730077
vt 0.536335 0.769047
vt 0.680827 0.723727
vt 0.681083 0.723224
vt 0.684196 0.724236
vt 0.683607 0.726150
vt 0.680826 0.721607
vt 0.680427 0.721209
vt 0.682351 0.718560
vt 0.683990 0.719713
vt 0.678810 0.720952
vt 0.678308 0.721209
vt 0.676383 0.718561
vt 0.677985 0.717358
vt 0.821827 0.774621
vt 0.699138 0.738972
vt 0.702178 0.730104
vt 0.822284 0.768867
vt 0.705000 0.721156
vt 0.825146 0.763867
vt 0.664836 0.742676
vt 0.498049 0.972332
vt 0.497793 0.968175
vt 0.659565 0.738943
vt 0.772763 0.603614
vt 0.701005 0.708857
vt 0.693474 0.703244
vt 0.767486 0.601335
vt 0.595089 0.596787
vt 0.672876 0.697826
vt 0.665239 0.703278
vt 0.591219 0.601057
vt 0.657747 0.708911
vt 0.585889 0.603271
vt 0.502081 0.971290
vt 0.670018 0.746534
vt 0.673820 0.874277
vt 0.685806 0.697819
vt 0.763685 0.597021
vt 0.861693 0.968016
vt 0.969782 0.630708
vt 0.536913 0.774849
vt 0.968130 0.625734
vt 0.682208 0.418083
vt 0.685205 0.874330
vt 0.688722 0.746510
vt 0.857409 0.971178
vt 0.676967 0.418051
vt 0.389648 0.625194
vt 0.387967 0.630247
vt 0.678308 0.724127
vt 0.678811 0.724383
vt 0.677366 0.727775
vt 0.676238 0.726978
vt 0.677909 0.723728
vt 0.675131 0.726151
vt 0.677653 0.723225
vt 0.674541 0.724238
vt 0.677652 0.722110
vt 0.677564 0.722668
vt 0.673892 0.722343
vt 0.674301 0.721023
vt 0.680428 0.724127
vt 0.682499 0.726977
vt 0.681083 0.722110
vt 0.684435 0.721021
vt 0.681172 0.722668
vt 0.684845 0.722340
vt 0.679367 0.720864
vt 0.679366 0.717339
vt 0.679925 0.720952
vt 0.680748 0.717358
vt 0.677909 0.721607
vt 0.674745 0.719714
vt 0.679373 0.746634
vt 0.679516 0.873032
vt 0.655854 0.715057
vt 0.385738 0.626712
vt 0.861460 0.972205
vt 0.693880 0.742674
vt 0.972003 0.627227
vt 0.702927 0.715029
vt 0.679590 0.414862
vt 0.679343 0.697902
vt 0.679368 0.724471
vt 0.679368 0.727744
vt 0.679925 0.724383
vt 0.681371 0.727775
vt 0.679368 0.722668
vt 0.679915 0.723420
vt 0.679656 0.723553
vt 0.679368 0.723598
vt 0.679080 0.723553
vt 0.678821 0.723421
vt 0.678615 0.723215
vt 0.678483 0.722955
vt 0.678437 0.722668
vt 0.678483 0.722380
vt 0.678615 0.722121
vt 0.678821 0.721915
vt 0.679080 0.721782
vt 0.679368 0.721737
vt 0.679655 0.721782
vt 0.679915 0.721915
vt 0.680121 0.722120
vt 0.680253 0.722380
vt 0.680299 0.722667
vt 0.680253 0.722955
vt 0.680121 0.723214
vt 0.685167 0.737118
vt 0.688204 0.734839
vt 0.679368 0.737111
vt 0.673568 0.737120
vt 0.670529 0.734838
vt 0.667419 0.732654
vt 0.665633 0.727136
vt 0.663832 0.721624
vt 0.665059 0.718030
vt 0.666171 0.714398
vt 0.670864 0.710982
vt 0.675553 0.707553
vt 0.679357 0.707610
vt 0.683161 0.707549
vt 0.687863 0.710970
vt 0.692571 0.714383
vt 0.693690 0.718020
vt 0.694921 0.721619
vt 0.693111 0.727139
vt 0.691315 0.732658
vt 0.527241 0.772035
vt 0.524773 0.768437
vt 0.528932 0.765729
vt 0.531701 0.770568
vt 0.527404 0.776370
vt 0.532350 0.776098
vt 0.495542 0.983968
vt 0.490164 0.983190
vt 0.493637 0.978408
vt 0.497208 0.978236
vt 0.487759 0.978316
vt 0.492695 0.974959
vt 0.831340 0.771699
vt 0.831289 0.776028
vt 0.826356 0.775812
vt 0.826900 0.770315
vt 0.833701 0.768143
vt 0.829560 0.765493
vt 0.980814 0.619302
vt 0.984698 0.623070
vt 0.979105 0.624901
vt 0.976122 0.622959
vt 0.983793 0.628405
vt 0.977852 0.628228
vt 0.679487 0.882604
vt 0.675315 0.883790
vt 0.674044 0.879003
vt 0.679503 0.877909
vt 0.683673 0.883838
vt 0.684961 0.879045
vt 0.871917 0.978179
vt 0.869571 0.983180
vt 0.865967 0.978322
vt 0.866892 0.974816
vt 0.864066 0.983968
vt 0.862345 0.978173
vt 0.372791 0.622394
vt 0.376821 0.618616
vt 0.381573 0.622354
vt 0.378525 0.624318
vt 0.373745 0.627873
vt 0.379789 0.627717
vt 0.770436 0.590279
vt 0.773046 0.593678
vt 0.770321 0.597431
vt 0.766614 0.593368
vt 0.777086 0.595109
vt 0.775331 0.599699
vt 0.585724 0.593321
vt 0.588375 0.589975
vt 0.592176 0.593094
vt 0.588414 0.597115
vt 0.581624 0.594708
vt 0.583355 0.599333
vt 0.679615 0.401504
vt 0.684400 0.404031
vt 0.682374 0.409624
vt 0.679605 0.407389
vt 0.674821 0.404015
vt 0.676828 0.409610
vt 0.378858 0.173851
vt 0.383981 0.176914
vt 0.344119 0.299907
vt 0.334987 0.297070
vt 0.337624 0.324715
vt 0.340102 0.327558
vt 0.338144 0.328161
vt 0.337110 0.324976
vt 0.335455 0.324714
vt 0.333518 0.327950
vt 0.332339 0.326273
vt 0.335048 0.324306
vt 0.334786 0.322651
vt 0.331109 0.321807
vt 0.332339 0.320169
vt 0.335048 0.322137
vt 0.389683 0.468943
vt 0.383798 0.469410
vt 0.344147 0.346554
vt 0.353218 0.343445
vt 0.378683 0.472339
vt 0.334993 0.349441
vt 0.357007 0.308358
vt 0.353188 0.302966
vt 0.587669 0.137489
vt 0.591921 0.137752
vt 0.214761 0.418756
vt 0.212429 0.413358
vt 0.316672 0.337651
vt 0.322414 0.345355
vt 0.207778 0.237013
vt 0.212145 0.233055
vt 0.316706 0.308770
vt 0.311129 0.316581
vt 0.214410 0.227603
vt 0.322469 0.301106
vt 0.590855 0.141876
vt 0.491621 0.317547
vt 0.360953 0.313658
vt 0.208017 0.409470
vt 0.311122 0.329808
vt 0.587507 0.509722
vt 0.242475 0.620285
vt 0.389916 0.177505
vt 0.237387 0.618596
vt 0.024981 0.326127
vt 0.491675 0.329193
vt 0.590741 0.505339
vt 0.360928 0.332790
vt 0.024949 0.320766
vt 0.236835 0.026868
vt 0.242003 0.025149
vt 0.338033 0.322138
vt 0.340949 0.320020
vt 0.341764 0.321174
vt 0.338295 0.322653
vt 0.337624 0.321729
vt 0.340104 0.318888
vt 0.337110 0.321468
vt 0.338146 0.318284
vt 0.335970 0.321467
vt 0.334858 0.318039
vt 0.336208 0.317621
vt 0.336541 0.321377
vt 0.338033 0.324307
vt 0.340948 0.326425
vt 0.335970 0.324977
vt 0.334856 0.328405
vt 0.336540 0.325067
vt 0.336205 0.328825
vt 0.334695 0.323222
vt 0.331090 0.323220
vt 0.334786 0.323792
vt 0.331109 0.324633
vt 0.335455 0.321730
vt 0.333519 0.318493
vt 0.490347 0.323373
vt 0.361056 0.323228
vt 0.328755 0.299169
vt 0.238387 0.022868
vt 0.591791 0.509483
vt 0.357004 0.338066
vt 0.328727 0.347320
vt 0.238914 0.622557
vt 0.021687 0.323449
vt 0.311207 0.323196
vt 0.341732 0.323222
vt 0.338385 0.323222
vt 0.341764 0.325271
vt 0.338295 0.323792
vt 0.336540 0.323222
vt 0.337445 0.323516
vt 0.337310 0.323782
vt 0.337492 0.323222
vt 0.337446 0.322928
vt 0.337310 0.322663
vt 0.337100 0.322452
vt 0.336834 0.322317
vt 0.336540 0.322270
vt 0.336246 0.322316
vt 0.335981 0.322452
vt 0.335770 0.322662
vt 0.335635 0.322928
vt 0.335588 0.323222
vt 0.335635 0.323516
vt 0.335770 0.323781
vt 0.335980 0.323992
vt 0.336246 0.324127
vt 0.336540 0.324174
vt 0.336834 0.324128
vt 0.337099 0.323992
vt 0.348990 0.332261
vt 0.351321 0.329154
vt 0.351314 0.323222
vt 0.351323 0.317289
vt 0.348990 0.314180
vt 0.346755 0.311000
vt 0.341110 0.309173
vt 0.335473 0.307331
vt 0.331797 0.308586
vt 0.328081 0.309723
vt 0.324587 0.314523
vt 0.321079 0.319320
vt 0.321138 0.323211
vt 0.321075 0.327102
vt 0.324575 0.331912
vt 0.328065 0.336727
vt 0.331786 0.337872
vt 0.335468 0.339131
vt 0.341114 0.337280
vt 0.346760 0.335443
vt 0.387038 0.167612
vt 0.385537 0.172174
vt 0.380588 0.169341
vt 0.383357 0.165087
vt 0.391472 0.167779
vt 0.391193 0.172837
vt 0.603824 0.135187
vt 0.597961 0.136891
vt 0.598136 0.133238
vt 0.603027 0.129686
vt 0.594608 0.132274
vt 0.598042 0.127226
vt 0.386695 0.478674
vt 0.385278 0.474132
vt 0.390902 0.473576
vt 0.391122 0.478622
vt 0.383057 0.481089
vt 0.380347 0.476853
vt 0.230808 0.631571
vt 0.234548 0.626771
vt 0.236534 0.629822
vt 0.234662 0.635544
vt 0.239938 0.628541
vt 0.240119 0.634618
vt 0.500138 0.323344
vt 0.495337 0.323360
vt 0.496455 0.317776
vt 0.501352 0.319076
vt 0.501401 0.327626
vt 0.496498 0.328943
vt 0.597902 0.520180
vt 0.594463 0.515040
vt 0.598049 0.514094
vt 0.603018 0.517780
vt 0.597896 0.510388
vt 0.603824 0.512149
vt 0.233971 0.009625
vt 0.235939 0.015491
vt 0.233930 0.018609
vt 0.230106 0.013748
vt 0.239575 0.010601
vt 0.239415 0.016783
vt 0.201120 0.416376
vt 0.204280 0.412465
vt 0.208435 0.416258
vt 0.204597 0.419046
vt 0.210756 0.421382
vt 0.206060 0.423178
vt 0.204232 0.227434
vt 0.208113 0.230186
vt 0.204000 0.234034
vt 0.200809 0.230146
vt 0.205651 0.223240
vt 0.210382 0.225011
vt 0.008022 0.323475
vt 0.014042 0.323464
vt 0.016329 0.326297
vt 0.010608 0.328369
vt 0.010591 0.318572
vt 0.016314 0.320624
s 1
usemtl Material.001
f 124/1/124 63/2/63 60/3/60 126/4/126
f 21/5/21 10/6/10 97/7/97 100/8/100
f 19/9/19 8/10/8 85/11/85 88/12/88
f 17/13/17 6/14/6 73/15/73 76/16/76
f 133/17/133 99/18/99 96/19/96 135/20/135
f 135/20/135 96/19/96 93/21/93 129/22/129
f 54/23/54 118/24/118 115/25/115 57/26/57
f 151/27/151 87/28/87 84/29/84 154/30/154
f 169/31/169 75/32/75 72/33/72 171/34/171
f 171/34/171 72/33/72 69/35/69 165/36/165
f 111/37/111 51/38/51 106/39/106
f 154/30/154 84/29/84 81/40/81 147/41/147
f 138/42/138 99/18/99 133/17/133
f 129/22/129 93/21/93 160/43/160
f 120/44/120 57/26/57 115/25/115
f 156/45/156 87/28/87 151/27/151
f 147/41/147 81/40/81 178/46/178
f 102/47/102 45/48/45 142/49/142
f 174/50/174 75/32/75 169/31/169
f 165/36/165 69/35/69 187/51/187
f 183/52/183 63/2/63 124/1/124
f 3/53/3 13/54/13 52/55/52 55/56/55
f 14/57/14 3/53/3 55/56/55 58/58/58
f 4/59/4 14/57/14 58/58/58 61/60/61
f 5/61/5 15/62/15 64/63/64 67/64/67
f 15/62/15 4/59/4 61/60/61 64/63/64
f 11/65/11 21/5/21 100/8/100 42/66/42
f 9/67/9 19/9/19 88/12/88 91/68/91
f 20/69/20 9/67/9 91/68/91 94/70/94
f 10/6/10 20/69/20 94/70/94 97/7/97
f 7/71/7 17/13/17 76/16/76 79/72/79
f 18/73/18 7/71/7 79/72/79 82/74/82
f 8/10/8 18/73/18 82/74/82 85/11/85
f 16/75/16 5/61/5 67/64/67 70/76/70
f 6/14/6 16/75/16 70/76/70 73/15/73
f 106/39/106 51/38/51 48/77/48 108/78/108
f 108/78/108 48/77/48 45/48/45 102/47/102
f 66/79/66 189/80/189 187/51/187 69/35/69
f 189/80/189 66/79/66 63/2/63 183/52/183
f 126/4/126 60/3/60 57/26/57 120/44/120
f 145/81/145 142/49/142 45/48/45 43/82/43
f 99/18/99 138/42/138 145/81/145 43/82/43
f 156/45/156 163/83/163 90/84/90 87/28/87
f 90/84/90 163/83/163 160/43/160 93/21/93
f 111/37/111 118/24/118 54/23/54 51/38/51
f 180/85/180 78/86/78 75/32/75 174/50/174
f 78/86/78 180/85/180 178/46/178 81/40/81
f 13/54/13 2/87/2 49/88/49 52/55/52
f 2/87/2 12/89/12 46/90/46 49/88/49
f 1/91/1 22/92/22 23/93/23
f 1/91/1 23/93/23 24/94/24
f 1/91/1 24/94/24 25/95/25
f 1/91/1 25/95/25 26/96/26
f 1/91/1 26/96/26 27/97/27
f 1/91/1 27/97/27 28/98/28
f 1/91/1 28/98/28 29/99/29
f 1/91/1 29/99/29 30/100/30
f 1/91/1 30/100/30 31/101/31
f 1/91/1 31/101/31 32/102/32
f 1/91/1 32/102/32 33/103/33
f 1/91/1 33/103/33 34/104/34
f 1/91/1 34/104/34 35/105/35
f 1/91/1 35/105/35 36/106/36
f 1/91/1 36/106/36 37/107/37
f 1/91/1 37/107/37 38/108/38
f 1/91/1 38/108/38 39/109/39
f 1/91/1 39/109/39 40/110/40
f 1/91/1 40/110/40 41/111/41
f 1/91/1 41/111/41 22/92/22
f 23/93/23 22/92/22 11/65/11 12/89/12
f 24/94/24 23/93/23 12/89/12 2/87/2
f 25/95/25 24/94/24 2/87/2 13/54/13
f 26/96/26 25/95/25 13/54/13 3/53/3
f 27/97/27 26/96/26 3/53/3 14/57/14
f 28/98/28 27/97/27 14/57/14 4/59/4
f 29/99/29 28/98/28 4/59/4 15/62/15
f 30/100/30 29/99/29 15/62/15 5/61/5
f 31/101/31 30/100/30 5/61/5 16/75/16
f 32/102/32 31/101/31 16/75/16 6/14/6
f 33/103/33 32/102/32 6/14/6 17/13/17
f 34/104/34 33/103/33 17/13/17 7/71/7
f 35/105/35 34/104/34 7/71/7 18/73/18
f 36/106/36 35/105/35 18/73/18 8/10/8
f 37/107/37 36/106/36 8/10/8 19/9/19
f 38/108/38 37/107/37 19/9/19 9/67/9
f 39/109/39 38/108/38 9/67/9 20/69/20
f 40/110/40 39/109/39 20/69/20 10/6/10
f 41/111/41 40/110/40 10/6/10 21/5/21
f 22/92/22 41/111/41 21/5/21 11/65/11
f 43/82/43 45/48/45 47/112/47 44/113/44
f 44/113/44 47/112/47 46/90/46 42/66/42
f 45/48/45 48/77/48 50/114/50 47/112/47
f 47/112/47 50/114/50 49/88/49 46/90/46
f 48/77/48 51/38/51 53/115/53 50/114/50
f 50/114/50 53/115/53 52/55/52 49/88/49
f 51/38/51 54/23/54 56/116/56 53/115/53
f 53/115/53 56/116/56 55/56/55 52/55/52
f 54/23/54 57/26/57 59/117/59 56/116/56
f 56/116/56 59/117/59 58/58/58 55/56/55
f 57/26/57 60/3/60 62/118/62 59/117/59
f 59/117/59 62/118/62 61/60/61 58/58/58
f 60/3/60 63/2/63 65/119/65 62/118/62
f 62/118/62 65/119/65 64/63/64 61/60/61
f 63/2/63 66/79/66 68/120/68 65/119/65
f 65/119/65 68/120/68 67/64/67 64/63/64
f 66/79/66 69/35/69 71/121/71 68/120/68
f 68/120/68 71/121/71 70/76/70 67/64/67
f 69/35/69 72/33/72 74/122/74 71/121/71
f 71/121/71 74/122/74 73/15/73 70/76/70
f 72/33/72 75/32/75 77/123/77 74/122/74
f 74/122/74 77/123/77 76/16/76 73/15/73
f 75/32/75 78/86/78 80/124/80 77/123/77
f 77/123/77 80/124/80 79/72/79 76/16/76
f 78/86/78 81/40/81 83/125/83 80/124/80
f 80/124/80 83/125/83 82/74/82 79/72/79
f 81/40/81 84/29/84 86/126/86 83/125/83
f 83/125/83 86/126/86 85/11/85 82/74/82
f 84/29/84 87/28/87 89/127/89 86/126/86
f 86/126/86 89/127/89 88/12/88 85/11/85
f 87/28/87 90/84/90 92/128/92 89/127/89
f 89/127/89 92/128/92 91/68/91 88/12/88
f 90/84/90 93/21/93 95/129/95 92/128/92
f 92/128/92 95/129/95 94/70/94 91/68/91
f 93/21/93 96/19/96 98/130/98 95/129/95
f 95/129/95 98/130/98 97/7/97 94/70/94
f 96/19/96 99/18/99 101/131/101 98/130/98
f 98/130/98 101/131/101 100/8/100 97/7/97
f 99/18/99 43/82/43 44/113/44 101/131/101
f 101/131/101 44/113/44 42/66/42 100/8/100
f 12/89/12 11/65/11 42/66/42 46/90/46
f 127/132/127 123/133/123 125/134/125 128/135/128
f 128/135/128 125/134/125 124/1/124 126/4/126
f 121/136/121 127/132/127 128/135/128 122/137/122
f 122/137/122 128/135/128 126/4/126 120/44/120
f 112/138/112 117/139/117 119/140/119 113/141/113
f 113/141/113 119/140/119 118/24/118 111/37/111
f 117/139/117 114/142/114 116/143/116 119/140/119
f 119/140/119 116/143/116 115/25/115 118/24/118
f 136/144/136 132/145/132 134/146/134 137/147/137
f 137/147/137 134/146/134 133/17/133 135/20/135
f 130/148/130 136/144/136 137/147/137 131/149/131
f 131/149/131 137/147/137 135/20/135 129/22/129
f 157/150/157 162/151/162 164/152/164 158/153/158
f 158/153/158 164/152/164 163/83/163 156/45/156
f 162/151/162 159/154/159 161/155/161 164/152/164
f 164/152/164 161/155/161 160/43/160 163/83/163
f 109/156/109 105/157/105 107/158/107 110/159/110
f 110/159/110 107/158/107 106/39/106 108/78/108
f 103/160/103 109/156/109 110/159/110 104/161/104
f 104/161/104 110/159/110 108/78/108 102/47/102
f 139/162/139 144/163/144 146/164/146 140/165/140
f 140/165/140 146/164/146 145/81/145 138/42/138
f 144/163/144 141/166/141 143/167/143 146/164/146
f 146/164/146 143/167/143 142/49/142 145/81/145
f 190/168/190 186/169/186 188/170/188 191/171/191
f 191/171/191 188/170/188 187/51/187 189/80/189
f 184/172/184 190/168/190 191/171/191 185/173/185
f 185/173/185 191/171/191 189/80/189 183/52/183
f 148/174/148 153/175/153 155/176/155 149/177/149
f 149/177/149 155/176/155 154/30/154 147/41/147
f 153/175/153 150/178/150 152/179/152 155/176/155
f 155/176/155 152/179/152 151/27/151 154/30/154
f 172/180/172 168/181/168 170/182/170 173/183/173
f 173/183/173 170/182/170 169/31/169 171/34/171
f 166/184/166 172/180/172 173/183/173 167/185/167
f 167/185/167 173/183/173 171/34/171 165/36/165
f 181/186/181 177/187/177 179/188/179 182/189/182
f 182/189/182 179/188/179 178/46/178 180/85/180
f 175/190/175 181/186/181 182/189/182 176/191/176
f 176/191/176 182/189/182 180/85/180 174/50/174
f 141/166/141 103/160/103 104/161/104 143/167/143
f 143/167/143 104/161/104 102/47/102 142/49/142
f 105/157/105 112/138/112 113/141/113 107/158/107
f 107/158/107 113/141/113 111/37/111 106/39/106
f 114/142/114 121/136/121 122/137/122 116/143/116
f 116/143/116 122/137/122 120/44/120 115/25/115
f 123/133/123 184/172/184 185/173/185 125/134/125
f 125/134/125 185/173/185 183/52/183 124/1/124
f 132/145/132 139/162/139 140/165/140 134/146/134
f 134/146/134 140/165/140 138/42/138 133/17/133
f 159/154/159 130/148/130 131/149/131 161/155/161
f 161/155/161 131/149/131 129/22/129 160/43/160
f 150/178/150 157/150/157 158/153/158 152/179/152
f 152/179/152 158/153/158 156/45/156 151/27/151
f 177/187/177 148/174/148 149/177/149 179/188/179
f 179/188/179 149/177/149 147/41/147 178/46/178
f 168/181/168 175/190/175 176/191/176 170/182/170
f 170/182/170 176/191/176 174/50/174 169/31/169
f 186/169/186 166/184/166 167/185/167 188/170/188
f 188/170/188 167/185/167 165/36/165 187/51/187
f 307/192/307 309/193/309 251/194/251 254/195/254
f 212/196/212 291/197/291 288/198/288 201/199/201
f 210/200/210 279/201/279 276/202/276 199/203/199
f 208/204/208 267/205/267 264/206/264 197/207/197
f 313/208/313 315/209/315 287/210/287 290/211/290
f 315/209/315 311/212/311 284/213/284 287/210/287
f 245/214/245 248/215/248 301/216/301 303/217/303
f 325/218/325 327/219/327 275/220/275 278/221/278
f 337/222/337 339/223/339 263/224/263 266/225/266
f 339/223/339 335/226/335 260/227/260 263/224/263
f 299/228/299 295/229/295 242/230/242
f 327/219/327 323/231/323 272/232/272 275/220/275
f 317/233/317 313/208/313 290/211/290
f 311/212/311 331/234/331 284/213/284
f 305/235/305 301/216/301 248/215/248
f 329/236/329 325/218/325 278/221/278
f 323/231/323 343/237/343 272/232/272
f 293/238/293 319/239/319 236/240/236
f 341/241/341 337/222/337 266/225/266
f 335/226/335 349/242/349 260/227/260
f 347/243/347 307/192/307 254/195/254
f 194/244/194 246/245/246 243/246/243 204/247/204
f 205/248/205 249/249/249 246/245/246 194/244/194
f 195/250/195 252/251/252 249/249/249 205/248/205
f 196/252/196 258/253/258 255/254/255 206/255/206
f 206/255/206 255/254/255 252/251/252 195/250/195
f 202/256/202 233/257/233 291/197/291 212/196/212
f 200/258/200 282/259/282 279/201/279 210/200/210
f 211/260/211 285/261/285 282/259/282 200/258/200
f 201/199/201 288/198/288 285/261/285 211/260/211
f 198/262/198 270/263/270 267/205/267 208/204/208
f 209/264/209 273/265/273 270/263/270 198/262/198
f 199/203/199 276/202/276 273/265/273 209/264/209
f 207/266/207 261/267/261 258/253/258 196/252/196
f 197/207/197 264/206/264 261/267/261 207/266/207
f 295/229/295 297/268/297 239/269/239 242/230/242
f 297/268/297 293/238/293 236/240/236 239/269/239
f 257/270/257 260/227/260 349/242/349 351/271/351
f 351/271/351 347/243/347 254/195/254 257/270/257
f 309/193/309 305/235/305 248/215/248 251/194/251
f 321/272/321 234/273/234 236/240/236 319/239/319
f 290/211/290 234/273/234 321/272/321 317/233/317
f 329/236/329 278/221/278 281/274/281 333/275/333
f 281/274/281 284/213/284 331/234/331 333/275/333
f 299/228/299 242/230/242 245/214/245 303/217/303
f 345/276/345 341/241/341 266/225/266 269/277/269
f 269/277/269 272/232/272 343/237/343 345/276/345
f 204/247/204 243/246/243 240/278/240 193/279/193
f 193/279/193 240/278/240 237/280/237 203/281/203
f 192/282/192 214/283/214 213/284/213
f 192/282/192 215/285/215 214/283/214
f 192/282/192 216/286/216 215/285/215
f 192/282/192 217/287/217 216/286/216
f 192/282/192 218/288/218 217/287/217
f 192/282/192 219/289/219 218/288/218
f 192/282/192 220/290/220 219/289/219
f 192/282/192 221/291/221 220/290/220
f 192/282/192 222/292/222 221/291/221
f 192/282/192 223/293/223 222/292/222
f 192/282/192 224/294/224 223/293/223
f 192/282/192 225/295/225 224/294/224
f 192/282/192 226/296/226 225/295/225
f 192/282/192 227/297/227 226/296/226
f 192/282/192 228/298/228 227/297/227
f 192/282/192 229/299/229 228/298/228
f 192/282/192 230/300/230 229/299/229
f 192/282/192 231/301/231 230/300/230
f 192/282/192 232/302/232 231/301/231
f 192/282/192 213/284/213 232/302/232
f 214/283/214 203/281/203 202/256/202 213/284/213
f 215/285/215 193/279/193 203/281/203 214/283/214
f 216/286/216 204/247/204 193/279/193 215/285/215
f 217/287/217 194/244/194 204/247/204 216/286/216
f 218/288/218 205/248/205 194/244/194 217/287/217
f 219/289/219 195/250/195 205/248/205 218/288/218
f 220/290/220 206/255/206 195/250/195 219/289/219
f 221/291/221 196/252/196 206/255/206 220/290/220
f 222/292/222 207/266/207 196/252/196 221/291/221
f 223/293/223 197/207/197 207/266/207 222/292/222
f 224/294/224 208/204/208 197/207/197 223/293/223
f 225/295/225 198/262/198 208/204/208 224/294/224
f 226/296/226 209/264/209 198/262/198 225/295/225
f 227/297/227 199/203/199 209/264/209 226/296/226
f 228/298/228 210/200/210 199/203/199 227/297/227
f 229/299/229 200/258/200 210/200/210 228/298/228
f 230/300/230 211/260/211 200/258/200 229/299/229
f 231/301/231 201/199/201 211/260/211 230/300/230
f 232/302/232 212/196/212 201/199/201 231/301/231
f 213/284/213 202/256/202 212/196/212 232/302/232
f 234/273/234 235/303/235 238/304/238 236/240/236
f 235/303/235 233/257/233 237/280/237 238/304/238
f 236/240/236 238/304/238 241/305/241 239/269/239
f 238/304/238 237/280/237 240/278/240 241/305/241
f 239/269/239 241/305/241 244/306/244 242/230/242
f 241/305/241 240/278/240 243/246/243 244/306/244
f 242/230/242 244/306/244 247/307/247 245/214/245
f 244/306/244 243/246/243 246/245/246 247/307/247
f 245/214/245 247/307/247 250/308/250 248/215/248
f 247/307/247 246/245/246 249/249/249 250/308/250
f 248/215/248 250/308/250 253/309/253 251/194/251
f 250/308/250 249/249/249 252/251/252 253/309/253
f 251/194/251 253/309/253 256/310/256 254/195/254
f 253/309/253 252/251/252 255/254/255 256/310/256
f 254/195/254 256/310/256 259/311/259 257/270/257
f 256/310/256 255/254/255 258/253/258 259/311/259
f 257/270/257 259/311/259 262/312/262 260/227/260
f 259/311/259 258/253/258 261/267/261 262/312/262
f 260/227/260 262/312/262 265/313/265 263/224/263
f 262/312/262 261/267/261 264/206/264 265/313/265
f 263/224/263 265/313/265 268/314/268 266/225/266
f 265/313/265 264/206/264 267/205/267 268/314/268
f 266/225/266 268/314/268 271/315/271 269/277/269
f 268/314/268 267/205/267 270/263/270 271/315/271
f 269/277/269 271/315/271 274/316/274 272/232/272
f 271/315/271 270/263/270 273/265/273 274/316/274
f 272/232/272 274/316/274 277/317/277 275/220/275
f 274/316/274 273/265/273 276/202/276 277/317/277
f 275/220/275 277/317/277 280/318/280 278/221/278
f 277/317/277 276/202/276 279/201/279 280/318/280
f 278/221/278 280/318/280 283/319/283 281/274/281
f 280/318/280 279/201/279 282/259/282 283/319/283
f 281/274/281 283/319/283 286/320/286 284/213/284
f 283/319/283 282/259/282 285/261/285 286/320/286
f 284/213/284 286/320/286 289/321/289 287/210/287
f 286/320/286 285/261/285 288/198/288 289/321/289
f 287/210/287 289/321/289 292/322/292 290/211/290
f 289/321/289 288/198/288 291/197/291 292/322/292
f 290/211/290 292/322/292 235/303/235 234/273/234
f 292/322/292 291/197/291 233/257/233 235/303/235
f 203/281/203 237/280/237 233/257/233 202/256/202
f 127/323/127 310/324/310 308/325/308 123/326/123
f 310/324/310 309/193/309 307/192/307 308/325/308
f 121/327/121 306/328/306 310/324/310 127/323/127
f 306/328/306 305/235/305 309/193/309 310/324/310
f 112/329/112 300/330/300 304/331/304 117/332/117
f 300/330/300 299/228/299 303/217/303 304/331/304
f 117/332/117 304/331/304 302/333/302 114/334/114
f 304/331/304 303/217/303 301/216/301 302/333/302
f 136/335/136 316/336/316 314/337/314 132/338/132
f 316/336/316 315/209/315 313/208/313 314/337/314
f 130/339/130 312/340/312 316/336/316 136/335/136
f 312/340/312 311/212/311 315/209/315 316/336/316
f 157/341/157 330/342/330 334/343/334 162/344/162
f 330/342/330 329/236/329 333/275/333 334/343/334
f 162/344/162 334/343/334 332/345/332 159/346/159
f 334/343/334 333/275/333 331/234/331 332/345/332
f 109/347/109 298/348/298 296/349/296 105/350/105
f 298/348/298 297/268/297 295/229/295 296/349/296
f 103/351/103 294/352/294 298/348/298 109/347/109
f 294/352/294 293/238/293 297/268/297 298/348/298
f 139/353/139 318/354/318 322/355/322 144/356/144
f 318/354/318 317/233/317 321/272/321 322/355/322
f 144/356/144 322/355/322 320/357/320 141/358/141
f 322/355/322 321/272/321 319/239/319 320/357/320
f 190/359/190 352/360/352 350/361/350 186/362/186
f 352/360/352 351/271/351 349/242/349 350/361/350
f 184/363/184 348/364/348 352/360/352 190/359/190
f 348/364/348 347/243/347 351/271/351 352/360/352
f 148/365/148 324/366/324 328/367/328 153/368/153
f 324/366/324 323/231/323 327/219/327 328/367/328
f 153/368/153 328/367/328 326/369/326 150/370/150
f 328/367/328 327/219/327 325/218/325 326/369/326
f 172/371/172 340/372/340 338/373/338 168/374/168
f 340/372/340 339/223/339 337/222/337 338/373/338
f 166/375/166 336/376/336 340/372/340 172/371/172
f 336/376/336 335/226/335 339/223/339 340/372/340
f 181/377/181 346/378/346 344/379/344 177/380/177
f 346/378/346 345/276/345 343/237/343 344/379/344
f 175/381/175 342/382/342 346/378/346 181/377/181
f 342/382/342 341/241/341 345/276/345 346/378/346
f 141/358/141 320/357/320 294/352/294 103/351/103
f 320/357/320 319/239/319 293/238/293 294/352/294
f 105/350/105 296/349/296 300/330/300 112/329/112
f 296/349/296 295/229/295 299/228/299 300/330/300
f 114/334/114 302/333/302 306/328/306 121/327/121
f 302/333/302 301/216/301 305/235/305 306/328/306
f 123/326/123 308/325/308 348/364/348 184/363/184
f 308/325/308 307/192/307 347/243/347 348/364/348
f 132/338/132 314/337/314 318/354/318 139/353/139
f 314/337/314 313/208/313 317/233/317 318/354/318
f 159/346/159 332/345/332 312/340/312 130/339/130
f 332/345/332 331/234/331 311/212/311 312/340/312
f 150/370/150 326/369/326 330/342/330 157/341/157
f 326/369/326 325/218/325 329/236/329 330/342/330
f 177/380/177 344/379/344 324/366/324 148/365/148
f 344/379/344 343/237/343 323/231/323 324/366/324
f 168/374/168 338/373/338 342/382/342 175/381/175
f 338/373/338 337/222/337 341/241/341 342/382/342
f 186/362/186 350/361/350 336/376/336 166/375/166
f 350/361/350 349/242/349 335/226/335 336/376/336
